<svg version="1.1" xmlns="http://www.w3.org/2000/svg" width="240" height="180" viewBox="4 1 233 179" style="clip-path: polygon(11% 8%, 90% 8%, 90% 87%, 11% 87%);">
  <path d="M0 0 C9.0001376 8.71074411 14.97098316 18.01719648 15.20727539 30.72949219 C15.10895547 44.81473163 13.121273 54.21113968 3.0078125 64.625 C-0.26804566 67.71335113 -3.46481599 70.46276931 -7.3125 72.8125 C-7.96734375 73.225 -8.6221875 73.6375 -9.296875 74.0625 C-19.42905223 79.23637773 -34.40942055 78.22101442 -45.125 75.3125 C-46.53094188 74.84167295 -47.93276511 74.35534651 -49.3125 73.8125 C-49.3125 72.8225 -49.3125 71.8325 -49.3125 70.8125 C-51.6225 70.1525 -53.9325 69.4925 -56.3125 68.8125 C-56.3125 68.1525 -56.3125 67.4925 -56.3125 66.8125 C-51.3625 66.3175 -51.3625 66.3175 -46.3125 65.8125 C-53.2425 65.3175 -53.2425 65.3175 -60.3125 64.8125 C-60.6425 63.8225 -60.9725 62.8325 -61.3125 61.8125 C-52.8975 61.3175 -52.8975 61.3175 -44.3125 60.8125 C-51.2425 60.1525 -58.1725 59.4925 -65.3125 58.8125 C-65.3125 58.1525 -65.3125 57.4925 -65.3125 56.8125 C-60.51670779 55.91234342 -55.79788552 55.51834946 -50.9375 55.25 C-48.42125 55.105625 -45.905 54.96125 -43.3125 54.8125 C-51.5625 54.4825 -59.8125 54.1525 -68.3125 53.8125 C-68.3125 53.1525 -68.3125 52.4925 -68.3125 51.8125 C-65.96311112 50.63780556 -64.36176795 50.61215111 -61.7421875 50.49609375 C-60.53151611 50.43893188 -60.53151611 50.43893188 -59.29638672 50.38061523 C-58.2704541 50.33751221 -57.24452148 50.29440918 -56.1875 50.25 C-52.92875 50.105625 -49.67 49.96125 -46.3125 49.8125 C-54.5625 49.1525 -62.8125 48.4925 -71.3125 47.8125 C-70.9825 47.1525 -70.6525 46.4925 -70.3125 45.8125 C-68.08764648 45.40185547 -68.08764648 45.40185547 -65.18359375 45.1796875 C-63.78645142 45.06536377 -63.78645142 45.06536377 -62.36108398 44.94873047 C-61.16942627 44.86252441 -59.97776855 44.77631836 -58.75 44.6875 C-54.975625 44.39875 -51.20125 44.11 -47.3125 43.8125 C-55.5625 43.4825 -63.8125 43.1525 -72.3125 42.8125 C-72.3125 42.1525 -72.3125 41.4925 -72.3125 40.8125 C-62.0825 40.1525 -51.8525 39.4925 -41.3125 38.8125 C-48.14719794 38.52501872 -48.14719794 38.52501872 -54.98217773 38.24438477 C-60.79952986 37.98981843 -66.5329306 37.52373967 -72.3125 36.8125 C-72.3125 36.1525 -72.3125 35.4925 -72.3125 34.8125 C-59.9375 34.3175 -59.9375 34.3175 -47.3125 33.8125 C-55.5625 33.1525 -63.8125 32.4925 -72.3125 31.8125 C-72.3125 31.1525 -72.3125 30.4925 -72.3125 29.8125 C-65.0525 29.4825 -57.7925 29.1525 -50.3125 28.8125 C-57.5725 28.1525 -64.8325 27.4925 -72.3125 26.8125 C-71.9825 26.1525 -71.6525 25.4925 -71.3125 24.8125 C-69.17944336 24.40185547 -69.17944336 24.40185547 -66.40234375 24.1796875 C-65.41298828 24.09589844 -64.42363281 24.01210938 -63.40429688 23.92578125 C-62.36337891 23.84714844 -61.32246094 23.76851562 -60.25 23.6875 C-59.20521484 23.60113281 -58.16042969 23.51476563 -57.08398438 23.42578125 C-54.494169 23.21291971 -51.90340678 23.01163756 -49.3125 22.8125 C-56.2425 22.4825 -63.1725 22.1525 -70.3125 21.8125 C-70.3125 21.1525 -70.3125 20.4925 -70.3125 19.8125 C-66.34627403 19.08973119 -62.50405256 18.64766596 -58.4765625 18.49609375 C-57.5170166 18.45798584 -56.5574707 18.41987793 -55.56884766 18.38061523 C-54.37050293 18.33751221 -53.1721582 18.29440918 -51.9375 18.25 C-46.183125 18.0334375 -46.183125 18.0334375 -40.3125 17.8125 C-54.1725 17.3175 -54.1725 17.3175 -68.3125 16.8125 C-68.3125 16.1525 -68.3125 15.4925 -68.3125 14.8125 C-65.71992331 13.94830777 -63.97212293 13.63669068 -61.30078125 13.49609375 C-60.54345703 13.45419922 -59.78613281 13.41230469 -59.00585938 13.36914062 C-58.22017578 13.32982422 -57.43449219 13.29050781 -56.625 13.25 C-55.82771484 13.20681641 -55.03042969 13.16363281 -54.20898438 13.11914062 C-52.24368553 13.01322632 -50.27811504 12.91237449 -48.3125 12.8125 C-51.90604938 11.85262607 -55.34727011 11.51006609 -59.0625 11.25 C-60.23296875 11.16621094 -61.4034375 11.08242188 -62.609375 10.99609375 C-63.50140625 10.93550781 -64.3934375 10.87492187 -65.3125 10.8125 C-65.3125 10.1525 -65.3125 9.4925 -65.3125 8.8125 C-62.90708071 7.60979036 -61.20883409 7.60933337 -58.5234375 7.49609375 C-57.58242188 7.45419922 -56.64140625 7.41230469 -55.671875 7.36914062 C-54.68703125 7.32982422 -53.7021875 7.29050781 -52.6875 7.25 C-51.69492188 7.20681641 -50.70234375 7.16363281 -49.6796875 7.11914062 C-47.22412967 7.01289053 -44.76833349 6.91217545 -42.3125 6.8125 C-48.5825 6.4825 -54.8525 6.1525 -61.3125 5.8125 C-60.9825 4.8225 -60.6525 3.8325 -60.3125 2.8125 C-54.3725 2.3175 -54.3725 2.3175 -48.3125 1.8125 C-50.9525 1.4825 -53.5925 1.1525 -56.3125 0.8125 C-56.3125 0.1525 -56.3125 -0.5075 -56.3125 -1.1875 C-51.50804605 -3.63448897 -46.77458294 -3.62370061 -41.5 -3.8125 C-40.61634766 -3.85117187 -39.73269531 -3.88984375 -38.82226562 -3.9296875 C-36.65267028 -4.02350784 -34.48261453 -4.10657326 -32.3125 -4.1875 C-36.6025 -4.5175 -40.8925 -4.8475 -45.3125 -5.1875 C-45.3125 -5.8475 -45.3125 -6.5075 -45.3125 -7.1875 C-30.69364362 -14.04008893 -11.95459945 -10.17221188 0 0 Z " fill="#299CD4" transform="translate(119.3125,35.1875)"></path>
  <path d="M0 0 C9.93716406 8.17596639 16.70078239 18.02844639 18 31 C19.0365957 42.70410786 16.08539491 53.60415023 9 63 C0.65997118 72.66825563 -7.98410256 78.75766308 -20.9375 79.8125 C-29.97551425 80.33994099 -38.39338358 78.86887214 -47 76 C-47 75.34 -47 74.68 -47 74 C-45.515 73.505 -45.515 73.505 -44 73 C-43.30062468 71.68352881 -42.63270867 70.34977849 -42 69 C-41.01 68.505 -41.01 68.505 -40 68 C-39.31379969 66.67661368 -38.65213539 65.34050052 -38 64 C-37.34 63.05125 -36.68 62.1025 -36 61.125 C-32.37526914 55.46135803 -31.52196787 49.73770338 -30.8125 43.1875 C-30.71775391 42.43146484 -30.62300781 41.67542969 -30.52539062 40.89648438 C-29.65615021 33.11313318 -30.42119178 26.39258357 -33 19 C-33 17.68 -33 16.36 -33 15 C-33.9793879 13.97980427 -34.97895449 12.97850195 -36 12 C-36 11.01 -36 10.02 -36 9 C-36.66 9 -37.32 9 -38 9 C-38.2475 8.236875 -38.495 7.47375 -38.75 6.6875 C-40.12176758 3.73819971 -41.3918717 2.82568981 -44 1 C-44 0.34 -44 -0.32 -44 -1 C-38.06 -1.495 -38.06 -1.495 -32 -2 C-35.63 -2.33 -39.26 -2.66 -43 -3 C-42.67 -3.99 -42.34 -4.98 -42 -6 C-26.83031371 -9.75886032 -13.10609058 -8.91583345 0 0 Z " fill="#F48F37" transform="translate(171,33)"></path>
  <path d="M0 0 C0 0.66 0 1.32 0 2 C-4.455 2.495 -4.455 2.495 -9 3 C-9 3.99 -9 4.98 -9 6 C-6.69 6.33 -4.38 6.66 -2 7 C-2.165 7.9075 -2.33 8.815 -2.5 9.75 C-3.10137146 13.11087503 -3.10137146 13.11087503 -3 17 C-3.61488281 17.06058594 -4.22976562 17.12117188 -4.86328125 17.18359375 C-5.67152344 17.26738281 -6.47976562 17.35117188 -7.3125 17.4375 C-8.11300781 17.51871094 -8.91351563 17.59992188 -9.73828125 17.68359375 C-12.16087179 17.95265693 -12.16087179 17.95265693 -15 19 C-16.92093176 19.01583723 -18.84272328 18.96657609 -20.76171875 18.87890625 C-21.87998047 18.83056641 -22.99824219 18.78222656 -24.15039062 18.73242188 C-25.31763672 18.67634766 -26.48488281 18.62027344 -27.6875 18.5625 C-28.86634766 18.51029297 -30.04519531 18.45808594 -31.25976562 18.40429688 C-34.17344094 18.27453806 -37.08678078 18.13956868 -40 18 C-40 17.67 -40 17.34 -40 17 C-36.04 16.505 -36.04 16.505 -32 16 C-40.25 15.67 -48.5 15.34 -57 15 C-57 14.34 -57 13.68 -57 13 C-46.77 12.34 -36.54 11.68 -26 11 C-32.83469794 10.71251872 -32.83469794 10.71251872 -39.66967773 10.43188477 C-45.48702986 10.17731843 -51.2204306 9.71123967 -57 9 C-57 8.34 -57 7.68 -57 7 C-44.625 6.505 -44.625 6.505 -32 6 C-40.25 5.34 -48.5 4.68 -57 4 C-57 3.34 -57 2.68 -57 2 C-51.29344264 1.71037787 -45.58666277 1.42578261 -39.87963867 1.14550781 C-37.94500238 1.04982752 -36.01042927 0.95285947 -34.07592773 0.85449219 C-22.70613955 0.27731568 -11.38600198 -0.15947712 0 0 Z " fill="#3FA6D8" transform="translate(104,63)"></path>
  <path d="M0 0 C2.6875 1.6875 2.6875 1.6875 4.6875 4.6875 C4.8125 7.375 4.8125 7.375 4.6875 9.6875 C2.7075 10.0175 0.7275 10.3475 -1.3125 10.6875 C-1.68375 10.0275 -2.055 9.3675 -2.4375 8.6875 C-4.22144778 6.33446955 -4.22144778 6.33446955 -7.5 6.4375 C-8.428125 6.52 -9.35625 6.6025 -10.3125 6.6875 C-10.3125 7.3475 -10.3125 8.0075 -10.3125 8.6875 C-9.49265625 8.92984375 -8.6728125 9.1721875 -7.828125 9.421875 C-6.75046875 9.75703125 -5.6728125 10.0921875 -4.5625 10.4375 C-3.49515625 10.76234375 -2.4278125 11.0871875 -1.328125 11.421875 C1.88532979 12.77052701 3.5542299 13.94980337 5.6875 16.6875 C6.27630855 21.3243673 6.35709068 23.50283956 4.0625 27.5625 C0.05086454 31.15185804 -3.54278876 31.9172697 -8.8125 31.625 C-13.70398228 30.90493408 -16.10647833 29.46896146 -19.3125 25.6875 C-19.6875 21.875 -19.6875 21.875 -19.3125 18.6875 C-17.6625 18.3575 -16.0125 18.0275 -14.3125 17.6875 C-13.879375 18.30625 -13.44625 18.925 -13 19.5625 C-11.31509517 21.9072245 -11.31509517 21.9072245 -8.3125 23.6875 C-5.66617713 23.3753236 -5.66617713 23.3753236 -3.3125 22.6875 C-2.9825 21.6975 -2.6525 20.7075 -2.3125 19.6875 C-3.04855469 19.51734375 -3.78460938 19.3471875 -4.54296875 19.171875 C-14.40830973 16.72182995 -14.40830973 16.72182995 -18.3125 12.6875 C-19.775458 9.761584 -19.75773109 7.93132653 -19.3125 4.6875 C-13.51709506 -1.10790494 -7.8593637 -3.1140875 0 0 Z " fill="#4BABDA" transform="translate(107.3125,123.3125)"></path>
  <path d="M0 0 C3.65746013 1.28011105 4.90668368 3.66357286 6.57495117 7.06982422 C7.62338517 9.62572915 8.66373169 12.18409968 9.6875 14.75 C10.05552734 15.63558594 10.42355469 16.52117187 10.80273438 17.43359375 C14.21933234 25.94022543 14.21933234 25.94022543 13.5 30.875 C12.84 31.535 12.18 32.195 11.5 32.875 C9.5625 32.8125 9.5625 32.8125 7.5 31.875 C4.5 27.69642857 4.5 27.69642857 4.5 24.875 C0.87 24.875 -2.76 24.875 -6.5 24.875 C-6.83 26.525 -7.16 28.175 -7.5 29.875 C-8.16 30.865 -8.82 31.855 -9.5 32.875 C-11.15 32.545 -12.8 32.215 -14.5 31.875 C-15.76496157 27.55304798 -15.17792967 25.12652061 -13.515625 20.98828125 C-13.07476562 19.88548828 -12.63390625 18.78269531 -12.1796875 17.64648438 C-11.70789062 16.50501953 -11.23609375 15.36355469 -10.75 14.1875 C-10.29367188 13.03443359 -9.83734375 11.88136719 -9.3671875 10.69335938 C-4.92713842 -0.24635692 -4.92713842 -0.24635692 0 0 Z M-1.5 10.875 C-2.16 13.515 -2.82 16.155 -3.5 18.875 C-1.85 18.875 -0.2 18.875 1.5 18.875 C1.05296014 14.39616304 1.05296014 14.39616304 -1.5 10.875 Z " fill="#42A8D9" transform="translate(72.5,122.125)"></path>
  <path d="M0 0 C16.25 1.25 16.25 1.25 20 5 C20.35173852 8.79877599 20.52701444 11.14360153 18.5 14.4375 C18.005 14.953125 17.51 15.46875 17 16 C17.9590625 16.309375 17.9590625 16.309375 18.9375 16.625 C21 18 21 18 21.9375 20.8125 C22.01144084 24.58348304 21.29251631 26.05247903 19 29 C15.20548348 31.52967768 12.18802503 31.22360092 7.8125 31.125 C3.9453125 31.063125 3.9453125 31.063125 0 31 C0 20.77 0 10.54 0 0 Z M7 7 C7 8.98 7 10.96 7 13 C8.65 12.67 10.3 12.34 12 12 C12.59070014 10.05396726 12.59070014 10.05396726 13 8 C11.93354885 6.70366379 11.93354885 6.70366379 9.4375 6.9375 C8.633125 6.958125 7.82875 6.97875 7 7 Z M7 19 C7 21.31 7 23.62 7 26 C9.41645782 26.16687448 9.41645782 26.16687448 12 26 C12.66 25.34 13.32 24.68 14 24 C13.67958603 21.39719432 13.67958603 21.39719432 13 19 C11.02 19 9.04 19 7 19 Z " fill="#F4831E" transform="translate(141,122)"></path>
  <path d="M0 0 C2.64 0 5.28 0 8 0 C12.33942566 9.79250924 15.70788518 19.8182016 19 30 C16.36 30 13.72 30 11 30 C10.34 27.69 9.68 25.38 9 23 C5.7 23 2.4 23 -1 23 C-1.144375 23.969375 -1.28875 24.93875 -1.4375 25.9375 C-2 29 -2 29 -3 30 C-5.33297433 30.04092937 -7.66705225 30.04241723 -10 30 C-7.56775836 19.6919283 -3.74664374 9.88394443 0 0 Z M4 9 C3.01 11.97 2.02 14.94 1 18 C2.98 18 4.96 18 7 18 C6.34 15.03 5.68 12.06 5 9 C4.67 9 4.34 9 4 9 Z " fill="#F4831E" transform="translate(172,123)"></path>
  <path d="M0 0 C4.22915147 -0.02953635 8.45827572 -0.04697584 12.6875 -0.0625 C14.45577148 -0.07506836 14.45577148 -0.07506836 16.25976562 -0.08789062 C24.22149544 -0.10970358 32.07229225 0.26651958 40 1 C40 1.33 40 1.66 40 2 C35.545 2.495 35.545 2.495 31 3 C31 3.66 31 4.32 31 5 C36.94 5.99 36.94 5.99 43 7 C43 8.32 43 9.64 43 11 C43.66 11.66 44.32 12.32 45 13 C42.36348463 13.87883846 40.61537697 14.17159799 37.89575195 14.29711914 C37.07512772 14.33708511 36.25450348 14.37705109 35.40901184 14.41822815 C34.52767075 14.45681442 33.64632965 14.4954007 32.73828125 14.53515625 C31.37959175 14.59962196 31.37959175 14.59962196 29.99345398 14.66539001 C27.0999732 14.80175653 24.20625962 14.93219803 21.3125 15.0625 C19.35089324 15.15390683 17.3893044 15.24569896 15.42773438 15.33789062 C10.61868605 15.56306545 5.80942056 15.78292675 1 16 C1 15.34 1 14.68 1 14 C9.415 13.505 9.415 13.505 18 13 C11.07 12.34 4.14 11.68 -3 11 C-3 10.34 -3 9.68 -3 9 C1.79579221 8.09984342 6.51461448 7.70584946 11.375 7.4375 C13.89125 7.293125 16.4075 7.14875 19 7 C10.75 6.67 2.5 6.34 -6 6 C-6 5.34 -6 4.68 -6 4 C-3.65061112 2.82530556 -2.04926795 2.79965111 0.5703125 2.68359375 C1.46621094 2.64169922 2.36210938 2.59980469 3.28515625 2.55664062 C4.22230469 2.51732422 5.15945312 2.47800781 6.125 2.4375 C7.54232422 2.37272461 7.54232422 2.37272461 8.98828125 2.30664062 C11.32534172 2.2004106 13.6626513 2.09968729 16 2 C10.72 1.67 5.44 1.34 0 1 C0 0.67 0 0.34 0 0 Z " fill="#67B8DE" transform="translate(57,83)"></path>
  <path d="M0 0 C0.83265381 0.00523682 1.66530762 0.01047363 2.52319336 0.01586914 C3.42231445 0.0190918 4.32143555 0.02231445 5.24780273 0.02563477 C6.66609375 0.03820312 6.66609375 0.03820312 8.11303711 0.05102539 C9.06243164 0.05553711 10.01182617 0.06004883 10.98999023 0.06469727 C13.34356776 0.07652429 15.69702188 0.09300514 18.05053711 0.11352539 C18.38053711 1.76352539 18.71053711 3.41352539 19.05053711 5.11352539 C15.62959469 7.39415367 14.36866489 7.33277546 10.36303711 7.23852539 C8.87223633 7.21145508 8.87223633 7.21145508 7.35131836 7.18383789 C6.59206055 7.16063477 5.83280273 7.13743164 5.05053711 7.11352539 C5.05053711 8.76352539 5.05053711 10.41352539 5.05053711 12.11352539 C8.68053711 12.11352539 12.31053711 12.11352539 16.05053711 12.11352539 C16.38053711 13.76352539 16.71053711 15.41352539 17.05053711 17.11352539 C16.05053711 18.11352539 16.05053711 18.11352539 13.54663086 18.21118164 C12.53729492 18.19958008 11.52795898 18.18797852 10.48803711 18.17602539 C9.47612305 18.16700195 8.46420898 18.15797852 7.42163086 18.14868164 C6.24793945 18.1312793 6.24793945 18.1312793 5.05053711 18.11352539 C5.0853418 18.78899414 5.12014648 19.46446289 5.15600586 20.16040039 C5.18307617 21.05243164 5.21014648 21.94446289 5.23803711 22.86352539 C5.2728418 23.74524414 5.30764648 24.62696289 5.34350586 25.53540039 C4.99977395 28.56024122 4.04826252 29.86936141 2.05053711 32.11352539 C-1.82446289 31.23852539 -1.82446289 31.23852539 -2.94946289 30.11352539 C-3.04949578 27.97999365 -3.08027337 25.84314997 -3.08227539 23.70727539 C-3.08356445 22.40661133 -3.08485352 21.10594727 -3.08618164 19.76586914 C-3.08408691 19.08508301 -3.08199219 18.40429688 -3.07983398 17.70288086 C-3.07448529 15.62224024 -3.07977969 13.5418155 -3.08618164 11.46118164 C-3.08489258 10.16051758 -3.08360352 8.85985352 -3.08227539 7.51977539 C-3.08114746 6.31643555 -3.08001953 5.1130957 -3.07885742 3.87329102 C-2.90518631 0.16918117 -2.90518631 0.16918117 0 0 Z " fill="#3EA6D8" transform="translate(40.949462890625,122.886474609375)"></path>
  <path d="M0 0 C4.14581887 -0.02886751 8.29161216 -0.04675327 12.4375 -0.0625 C14.21350586 -0.07506836 14.21350586 -0.07506836 16.02539062 -0.08789062 C17.15009766 -0.09111328 18.27480469 -0.09433594 19.43359375 -0.09765625 C20.47572021 -0.10289307 21.51784668 -0.10812988 22.59155273 -0.11352539 C25 0 25 0 26 1 C26.04063832 2.66617115 26.042721 4.33388095 26 6 C23.04335481 7.4783226 20.25770263 7.06032783 17 7 C17.01571045 7.65073486 17.0314209 8.30146973 17.04760742 8.97192383 C17.10994649 11.91869424 17.14898684 14.86532598 17.1875 17.8125 C17.21263672 18.83666016 17.23777344 19.86082031 17.26367188 20.91601562 C17.27333984 21.89892578 17.28300781 22.88183594 17.29296875 23.89453125 C17.3086792 24.80050049 17.32438965 25.70646973 17.34057617 26.63989258 C16.93875073 29.42444206 16.16311438 30.27599535 14 32 C11.525 31.01 11.525 31.01 9 30 C9 22.41 9 14.82 9 7 C6.36 7 3.72 7 1 7 C0.34 6.34 -0.32 5.68 -1 5 C-0.625 2.375 -0.625 2.375 0 0 Z " fill="#5AB3DC" transform="translate(114,123)"></path>
  <path d="M0 0 C2.64 0 5.28 0 8 0 C9.65 3.3 11.3 6.6 13 10 C15.48724903 6.68366796 17.23109915 3.70626844 19 0 C21.31 0 23.62 0 26 0 C24.71772875 4.19990294 23.08106176 7.80134929 20.9375 11.625 C17.78578854 17.74438137 17.02420383 23.17451902 17 30 C14.69 30 12.38 30 10 30 C9.98074463 29.39486572 9.96148926 28.78973145 9.94165039 28.16625977 C9.5140643 21.233495 7.59398203 16.07161285 4.4375 9.9375 C3.60175413 8.25966725 2.76705736 6.58131138 1.93359375 4.90234375 C1.56290771 4.17523193 1.19222168 3.44812012 0.81030273 2.69897461 C0 1 0 1 0 0 Z " fill="#F4831E" transform="translate(188,123)"></path>
  <path d="M0 0 C0.33 0.66 0.66 1.32 1 2 C3.39282343 2.42963413 5.71233533 2.75136662 8.125 3 C13.32530646 3.57666765 18.02617079 4.44971557 23 6 C23 6.33 23 6.66 23 7 C16.73 7 10.46 7 4 7 C10.93 7.33 17.86 7.66 25 8 C25.495 9.485 25.495 9.485 26 11 C26.99 10.67 27.98 10.34 29 10 C29 9.34 29 8.68 29 8 C33.455 7.505 33.455 7.505 38 7 C30.08148414 14.15220787 21.58470054 16.15339963 11.02441406 16.10400391 C4.23838686 15.75537299 -2.575994 14.14133533 -9 12 C-9 11.34 -9 10.68 -9 10 C-8.01 9.67 -7.02 9.34 -6 9 C-5.30062468 7.68352881 -4.63270867 6.34977849 -4 5 C-3.34 4.67 -2.68 4.34 -2 4 C-0.86649466 1.98330173 -0.86649466 1.98330173 0 0 Z " fill="#F4A55F" transform="translate(133,97)"></path>
  <path d="M0 0 C0.66 0.66 1.32 1.32 2 2 C1.01 2 0.02 2 -1 2 C-1 2.99 -1 3.98 -1 5 C-2.918125 5.12375 -2.918125 5.12375 -4.875 5.25 C-7.06368189 5.46191288 -7.06368189 5.46191288 -9 6 C-10.30065921 7.93383287 -10.30065921 7.93383287 -11 10 C-14.59021743 11.32873243 -18.46385862 11.31710195 -22.25 11.5625 C-23.51328125 11.64628906 -24.7765625 11.73007812 -26.078125 11.81640625 C-27.04234375 11.87699219 -28.0065625 11.93757813 -29 12 C-29 11.34 -29 10.68 -29 10 C-29.66 9.505 -30.32 9.01 -31 8.5 C-31.66 8.005 -32.32 7.51 -33 7 C-33 6.34 -33 5.68 -33 5 C-27.06 4.505 -27.06 4.505 -21 4 C-24.63 3.67 -28.26 3.34 -32 3 C-31.67 2.01 -31.34 1.02 -31 0 C-20.93960567 -2.49284107 -9.95799874 -3.61703093 0 0 Z " fill="#F5CEA6" transform="translate(160,27)"></path>
  <path d="M0 0 C0.75410156 0.00451172 1.50820312 0.00902344 2.28515625 0.01367188 C4.14847127 0.02546501 6.01174555 0.04340058 7.875 0.0625 C6.885 0.7225 5.895 1.3825 4.875 2.0625 C21.21 2.5575 21.21 2.5575 37.875 3.0625 C38.37 4.0525 38.37 4.0525 38.875 5.0625 C37.225 5.7225 35.575 6.3825 33.875 7.0625 C34.865 7.7225 35.855 8.3825 36.875 9.0625 C20.375 9.0625 3.875 9.0625 -13.125 9.0625 C-13.125 8.4025 -13.125 7.7425 -13.125 7.0625 C-10.53242331 6.19830777 -8.78462293 5.88669068 -6.11328125 5.74609375 C-4.97729492 5.68325195 -4.97729492 5.68325195 -3.81835938 5.61914062 C-3.03267578 5.57982422 -2.24699219 5.54050781 -1.4375 5.5 C-0.64021484 5.45681641 0.15707031 5.41363281 0.97851562 5.36914062 C2.94381447 5.26322632 4.90938496 5.16237449 6.875 5.0625 C3.28145062 4.10262607 -0.15977011 3.76006609 -3.875 3.5 C-5.04546875 3.41621094 -6.2159375 3.33242188 -7.421875 3.24609375 C-8.31390625 3.18550781 -9.2059375 3.12492187 -10.125 3.0625 C-10.125 2.4025 -10.125 1.7425 -10.125 1.0625 C-6.93675432 -0.53162284 -3.49603338 -0.03924735 0 0 Z " fill="#1A95D1" transform="translate(64.125,42.9375)"></path>
  <path d="M0 0 C2.89589652 -0.02706445 5.79153795 -0.04687029 8.6875 -0.0625 C9.50412109 -0.07087891 10.32074219 -0.07925781 11.16210938 -0.08789062 C15.24499084 -0.10442051 19.01651707 -0.03035098 23 1 C23 1.33 23 1.66 23 2 C20.69 2.33 18.38 2.66 16 3 C16 3.33 16 3.66 16 4 C20.29 4.33 24.58 4.66 29 5 C29 5.66 29 6.32 29 7 C27.60974609 7.07347656 27.60974609 7.07347656 26.19140625 7.1484375 C24.99386719 7.22320312 23.79632813 7.29796875 22.5625 7.375 C20.77005859 7.47941406 20.77005859 7.47941406 18.94140625 7.5859375 C17.97074219 7.72257812 17.00007813 7.85921875 16 8 C15.67 8.66 15.34 9.32 15 10 C21.93 10.495 21.93 10.495 29 11 C29 11.33 29 11.66 29 12 C6.19872014 12.61916858 6.19872014 12.61916858 -3 9 C-3 8.01 -3 7.02 -3 6 C-5.31 5.34 -7.62 4.68 -10 4 C-10 3.34 -10 2.68 -10 2 C-6.7 1.67 -3.4 1.34 0 1 C0 0.67 0 0.34 0 0 Z " fill="#85C7E4" transform="translate(73,100)"></path>
  <path d="M0 0 C0.33 0.66 0.66 1.32 1 2 C2.32 2 3.64 2 5 2 C5.33 4.64 5.66 7.28 6 10 C9.63 10.33 13.26 10.66 17 11 C16.01 11.495 16.01 11.495 15 12 C15 12.66 15 13.32 15 14 C15.66 14.33 16.32 14.66 17 15 C13.37 15 9.74 15 6 15 C6.02320313 15.91523438 6.04640625 16.83046875 6.0703125 17.7734375 C6.08835937 18.96195313 6.10640625 20.15046875 6.125 21.375 C6.14820313 22.55835938 6.17140625 23.74171875 6.1953125 24.9609375 C6 28 6 28 4 30 C2.68 29.67 1.36 29.34 0 29 C0 19.43 0 9.86 0 0 Z " fill="#2399D3" transform="translate(39,125)"></path>
  <path d="M0 0 C0 0.66 0 1.32 0 2 C-4.455 2.495 -4.455 2.495 -9 3 C-9 3.99 -9 4.98 -9 6 C-14.20173095 6.86809439 -19.16978816 7.12515348 -24.4375 7.0625 C-25.53481445 7.05573242 -25.53481445 7.05573242 -26.65429688 7.04882812 C-28.43623419 7.03718148 -30.21812863 7.01925191 -32 7 C-32 6.67 -32 6.34 -32 6 C-40.25 5.34 -48.5 4.68 -57 4 C-57 3.34 -57 2.68 -57 2 C-51.29344264 1.71037787 -45.58666277 1.42578261 -39.87963867 1.14550781 C-37.94500238 1.04982752 -36.01042927 0.95285947 -34.07592773 0.85449219 C-22.70613955 0.27731568 -11.38600198 -0.15947712 0 0 Z " fill="#74BFE1" transform="translate(104,63)"></path>
  <path d="M0 0 C2.6875 1.6875 2.6875 1.6875 4.6875 4.6875 C4.8125 7.375 4.8125 7.375 4.6875 9.6875 C2.7075 10.0175 0.7275 10.3475 -1.3125 10.6875 C-1.68375 10.0275 -2.055 9.3675 -2.4375 8.6875 C-4.22144778 6.33446955 -4.22144778 6.33446955 -7.5 6.4375 C-8.428125 6.52 -9.35625 6.6025 -10.3125 6.6875 C-10.6425 7.3475 -10.9725 8.0075 -11.3125 8.6875 C-13.78050047 7.53576645 -15.36033565 6.63966435 -17.3125 4.6875 C-17.3125 6.9975 -17.3125 9.3075 -17.3125 11.6875 C-16.6525 12.0175 -15.9925 12.3475 -15.3125 12.6875 C-16.3025 12.6875 -17.2925 12.6875 -18.3125 12.6875 C-19.775458 9.761584 -19.75773109 7.93132653 -19.3125 4.6875 C-13.51709506 -1.10790494 -7.8593637 -3.1140875 0 0 Z " fill="#54B0DC" transform="translate(107.3125,123.3125)"></path>
  <path d="M0 0 C0.33 0 0.66 0 1 0 C1 59.4 1 118.8 1 180 C0.67 180 0.34 180 0 180 C0 120.6 0 61.2 0 0 Z " fill="#FFFFFF" transform="translate(220,0)"></path>
  <path d="M0 0 C0.33 0 0.66 0 1 0 C1 59.4 1 118.8 1 180 C0.67 180 0.34 180 0 180 C0 120.6 0 61.2 0 0 Z " fill="#FFFFFF" transform="translate(19,0)"></path>
  <path d="M0 0 C1.32 0.66 2.64 1.32 4 2 C3.67 4.31 3.34 6.62 3 9 C5.64 9 8.28 9 11 9 C11 10.32 11 11.64 11 13 C7.7 13 4.4 13 1 13 C0.87625 13.928125 0.7525 14.85625 0.625 15.8125 C0 19 0 19 -2 22 C-3.65 21.67 -5.3 21.34 -7 21 C-8.62044949 15.13501828 -6.57034964 11.28396467 -4 6 C-2.76273937 3.88790861 -1.45453667 1.97401406 0 0 Z " fill="#2E9ED7" transform="translate(65,133)"></path>
  <path d="M0 0 C4.22915147 -0.02953635 8.45827572 -0.04697584 12.6875 -0.0625 C14.45577148 -0.07506836 14.45577148 -0.07506836 16.25976562 -0.08789062 C24.22149544 -0.10970358 32.07229225 0.26651958 40 1 C40 1.33 40 1.66 40 2 C35.545 2.495 35.545 2.495 31 3 C31 3.66 31 4.32 31 5 C27.17254277 6.24006181 23.36654408 6.12692202 19.390625 6.09765625 C18.66381531 6.0962413 17.93700562 6.09482635 17.18817139 6.09336853 C14.87540506 6.08778792 12.56273688 6.07523904 10.25 6.0625 C8.67838682 6.05748249 7.10677211 6.05292002 5.53515625 6.04882812 C1.69006657 6.03782485 -2.1549501 6.02057361 -6 6 C-6 5.34 -6 4.68 -6 4 C-3.65061112 2.82530556 -2.04926795 2.79965111 0.5703125 2.68359375 C1.46621094 2.64169922 2.36210938 2.59980469 3.28515625 2.55664062 C4.22230469 2.51732422 5.15945312 2.47800781 6.125 2.4375 C7.54232422 2.37272461 7.54232422 2.37272461 8.98828125 2.30664062 C11.32534172 2.2004106 13.6626513 2.09968729 16 2 C10.72 1.67 5.44 1.34 0 1 C0 0.67 0 0.34 0 0 Z " fill="#71BDE0" transform="translate(57,83)"></path>
  <path d="M0 0 C3 1 3 1 4 3 C7.13056995 4.06469264 10.26462313 5.0088161 13.453125 5.88085938 C16.85220315 6.90917971 18.73988273 7.67006994 20.96484375 10.4921875 C22.08338565 13.20201353 22.24879942 15.09734008 22 18 C21.01 17.67 20.02 17.34 19 17 C19 15.02 19 13.04 19 11 C18.01 11.99 17.02 12.98 16 14 C12.125 12.125 12.125 12.125 11 11 C9.48071962 10.92820036 7.95832518 10.91607993 6.4375 10.9375 C5.19806641 10.95103516 5.19806641 10.95103516 3.93359375 10.96484375 C3.29550781 10.97644531 2.65742187 10.98804688 2 11 C-0.12999997 7.20960634 -0.16702456 4.34263862 0 0 Z " fill="#33A1D8" transform="translate(90,128)"></path>
  <path d="M0 0 C0.33 0.66 0.66 1.32 1 2 C8.92 2.33 16.84 2.66 25 3 C25 3.66 25 4.32 25 5 C17.86835611 7.28981703 11.42712393 7.05037938 4 6.625 C2.26556641 6.53992188 2.26556641 6.53992188 0.49609375 6.453125 C-2.33665423 6.31265816 -5.1683778 6.16135145 -8 6 C-8 5.67 -8 5.34 -8 5 C-5.36 4.67 -2.72 4.34 0 4 C-8.25 3.67 -16.5 3.34 -25 3 C-25 2.34 -25 1.68 -25 1 C-16.64380043 0.24524649 -8.39004715 -0.13605482 0 0 Z " fill="#99D1E7" transform="translate(72,75)"></path>
  <path d="M0 0 C0.75410156 0.00451172 1.50820312 0.00902344 2.28515625 0.01367188 C4.14847127 0.02546501 6.01174555 0.04340058 7.875 0.0625 C6.885 0.7225 5.895 1.3825 4.875 2.0625 C21.21 2.5575 21.21 2.5575 37.875 3.0625 C38.37 4.0525 38.37 4.0525 38.875 5.0625 C33.08241707 6.83294646 26.86859213 6.24699117 20.875 6.25 C18.94914062 6.26836914 18.94914062 6.26836914 16.984375 6.28710938 C15.75203125 6.28904297 14.5196875 6.29097656 13.25 6.29296875 C12.12335938 6.29707764 10.99671875 6.30118652 9.8359375 6.30541992 C6.90351765 6.06483963 5.39421397 5.47521027 2.875 4.0625 C0.63366742 3.77556612 -1.6194319 3.57283409 -3.875 3.4375 C-5.63070312 3.32535156 -5.63070312 3.32535156 -7.421875 3.2109375 C-8.31390625 3.16195312 -9.2059375 3.11296875 -10.125 3.0625 C-10.125 2.4025 -10.125 1.7425 -10.125 1.0625 C-6.93675432 -0.53162284 -3.49603338 -0.03924735 0 0 Z " fill="#83C5E2" transform="translate(64.125,42.9375)"></path>
  <path d="M0 0 C-1.32 0.33 -2.64 0.66 -4 1 C-4 1.66 -4 2.32 -4 3 C-4.99 3.33 -5.98 3.66 -7 4 C-4.69 4.33 -2.38 4.66 0 5 C0 5.33 0 5.66 0 6 C-1.93742341 6.02703381 -3.87495479 6.04641125 -5.8125 6.0625 C-6.89144531 6.07410156 -7.97039062 6.08570313 -9.08203125 6.09765625 C-12 6 -12 6 -15 5 C-17.22574335 4.77548542 -19.45581519 4.59217122 -21.6875 4.4375 C-23.45673828 4.31181641 -23.45673828 4.31181641 -25.26171875 4.18359375 C-26.16535156 4.12300781 -27.06898437 4.06242187 -28 4 C-28 3.34 -28 2.68 -28 2 C-19.00842892 -2.21479895 -9.5659682 -0.8096197 0 0 Z " fill="#70BDE0" transform="translate(102,26)"></path>
  <path d="M0 0 C7.92 0 15.84 0 24 0 C22 5 22 5 20.328125 5.77734375 C17.13565341 6.08266402 13.95076981 6.3550427 10.75 6.5625 C9.48671875 6.64628906 8.2234375 6.73007812 6.921875 6.81640625 C5.95765625 6.87699219 4.9934375 6.93757813 4 7 C4 6.34 4 5.68 4 5 C3.34 4.505 2.68 4.01 2 3.5 C1.34 3.005 0.68 2.51 0 2 C0 1.34 0 0.68 0 0 Z " fill="#F3A65F" transform="translate(127,32)"></path>
  <path d="M0 0 C0.99 0.495 0.99 0.495 2 1 C1.67 2.32 1.34 3.64 1 5 C2.98 5.495 2.98 5.495 5 6 C5 12.27 5 18.54 5 25 C3.35 25 1.7 25 0 25 C0 16.75 0 8.5 0 0 Z " fill="#1895D2" transform="translate(124,128)"></path>
  <path d="M0 0 C0.763125 0.20625 1.52625 0.4125 2.3125 0.625 C2.43625 1.5325 2.56 2.44 2.6875 3.375 C3.23359677 6.21470323 3.88513803 8.15090591 5.3125 10.625 C3.9925 11.615 2.6725 12.605 1.3125 13.625 C0.6525 13.295 -0.0075 12.965 -0.6875 12.625 C-0.6875 11.965 -0.6875 11.305 -0.6875 10.625 C-1.6775 10.955 -2.6675 11.285 -3.6875 11.625 C-4.0175 10.965 -4.3475 10.305 -4.6875 9.625 C-5.3475 9.625 -6.0075 9.625 -6.6875 9.625 C-6.19921875 3.5703125 -6.19921875 3.5703125 -5.6875 1.625 C-2.6875 -0.375 -2.6875 -0.375 0 0 Z " fill="#3EA6D9" transform="translate(72.6875,122.375)"></path>
  <path d="M0 0 C1.45247241 0.00502586 2.90494651 0.00958684 4.35742188 0.01367188 C7.88415015 0.02458958 11.41081402 0.04179414 14.9375 0.0625 C14.2775 1.0525 13.6175 2.0425 12.9375 3.0625 C9.86816406 3.41894531 9.86816406 3.41894531 5.953125 3.390625 C4.91330475 3.38781525 4.91330475 3.38781525 3.85247803 3.38494873 C2.38304856 3.37822054 0.91363724 3.36429069 -0.55566406 3.34375 C-2.78988558 3.31281314 -5.02339874 3.30279921 -7.2578125 3.296875 C-13.28540687 3.25817266 -19.12150413 3.20667481 -25.0625 2.0625 C-25.0625 1.7325 -25.0625 1.4025 -25.0625 1.0625 C-16.70821234 -0.12296875 -8.41489405 -0.05090622 0 0 Z " fill="#299CD3" transform="translate(88.0625,42.9375)"></path>
  <path d="M0 0 C0.33 0.66 0.66 1.32 1 2 C3.39282343 2.42963413 5.71233533 2.75136662 8.125 3 C13.32530646 3.57666765 18.02617079 4.44971557 23 6 C23 6.33 23 6.66 23 7 C16.73 7 10.46 7 4 7 C6.64 7.66 9.28 8.32 12 9 C12 9.33 12 9.66 12 10 C9.93757383 10.02717692 7.87504297 10.0464758 5.8125 10.0625 C4.66394531 10.07410156 3.51539063 10.08570312 2.33203125 10.09765625 C-0.59300586 10.01192832 -3.16316291 9.67849023 -6 9 C-4.25 5.125 -4.25 5.125 -2 4 C-0.86649466 1.98330173 -0.86649466 1.98330173 0 0 Z " fill="#F4C596" transform="translate(133,97)"></path>
  <path d="M0 0 C6.93 0 13.86 0 21 0 C21.33 0.66 21.66 1.32 22 2 C21.01 2.33 20.02 2.66 19 3 C25.93 3.495 25.93 3.495 33 4 C33 4.33 33 4.66 33 5 C21.3031663 6.37707404 11.26864872 5.75621624 0 2 C0 1.34 0 0.68 0 0 Z " fill="#F3A967" transform="translate(124,107)"></path>
  <path d="M0 0 C1.24523437 -0.02578125 2.49046875 -0.0515625 3.7734375 -0.078125 C4.71445313 0.03015625 5.65546875 0.1384375 6.625 0.25 C7.285 1.24 7.945 2.23 8.625 3.25 C-5.235 3.25 -19.095 3.25 -33.375 3.25 C-33.375 2.59 -33.375 1.93 -33.375 1.25 C-10.381069 0.16711948 -10.381069 0.16711948 0 0 Z " fill="#279AD4" transform="translate(92.375,96.75)"></path>
  <path d="M0 0 C5.05403538 0.09364965 10.10759821 0.19976907 15.16113281 0.31738281 C16.87981011 0.35563327 18.59856638 0.39049303 20.31738281 0.421875 C22.7900004 0.46761128 25.26207613 0.52559084 27.734375 0.5859375 C28.50118591 0.59748871 29.26799683 0.60903992 30.05804443 0.62094116 C33.83188352 0.72502269 36.79363916 0.89444046 40 3 C34.55402237 4.07653046 29.15631025 4.33048035 23.625 4.5625 C22.65997559 4.6049585 21.69495117 4.64741699 20.70068359 4.69116211 C12.4621286 5.02994763 4.24448524 5.10630425 -4 5 C-4 4.67 -4 4.34 -4 4 C1.94 3.505 1.94 3.505 8 3 C5.36 2.67 2.72 2.34 0 2 C0 1.34 0 0.68 0 0 Z " fill="#8FCBE5" transform="translate(63,34)"></path>
  <path d="M0 0 C2 0.9375 2 0.9375 3.25 4 C3.4975 4.969375 3.745 5.93875 4 6.9375 C3.01 7.4325 3.01 7.4325 2 7.9375 C2.99 8.5975 3.98 9.2575 5 9.9375 C5 9.2775 5 8.6175 5 7.9375 C6.98 7.9375 8.96 7.9375 11 7.9375 C10.34 8.5975 9.68 9.2575 9 9.9375 C10.32 10.5975 11.64 11.2575 13 11.9375 C10.91781638 12.04582169 8.83400871 12.12323541 6.75 12.1875 C5.00976562 12.25710937 5.00976562 12.25710937 3.234375 12.328125 C0 11.9375 0 11.9375 -2.40625 10.15625 C-4.63347988 7.05559663 -4.28605245 4.6561818 -4 0.9375 C-2 -0.0625 -2 -0.0625 0 0 Z " fill="#6DBBDF" transform="translate(92,141.0625)"></path>
  <path d="M0 0 C0.92683594 0.00451172 1.85367188 0.00902344 2.80859375 0.01367188 C5.08079709 0.02538426 7.35286388 0.04178628 9.625 0.0625 C8.965 0.7225 8.305 1.3825 7.625 2.0625 C8.93855469 2.12308594 10.25210938 2.18367188 11.60546875 2.24609375 C13.34115541 2.33053256 15.07683198 2.41517888 16.8125 2.5 C17.67681641 2.53931641 18.54113281 2.57863281 19.43164062 2.61914062 C23.58414122 2.82597016 27.57037862 3.06353531 31.625 4.0625 C31.625 4.3925 31.625 4.7225 31.625 5.0625 C20.95226357 5.21664985 10.39562298 4.73819662 -0.25 4.0625 C-1.82419486 3.96575633 -3.39841358 3.86940004 -4.97265625 3.7734375 C-8.77372624 3.54090554 -12.5744386 3.30319582 -16.375 3.0625 C-16.375 2.4025 -16.375 1.7425 -16.375 1.0625 C-10.89230931 -0.09414737 -5.57160726 -0.05166255 0 0 Z " fill="#B8DFED" transform="translate(65.375,53.9375)"></path>
  <path d="M0 0 C2.79192205 -0.05380578 5.5828141 -0.09357669 8.375 -0.125 C9.1690625 -0.14175781 9.963125 -0.15851563 10.78125 -0.17578125 C12.85492015 -0.19335473 14.92883241 -0.10335168 17 0 C17.66 0.66 18.32 1.32 19 2 C18.67 2.33 18.34 2.66 18 3 C24.93 3.495 24.93 3.495 32 4 C32 4.33 32 4.66 32 5 C9.19872014 5.61916858 9.19872014 5.61916858 0 2 C0 1.34 0 0.68 0 0 Z " fill="#5EB4DC" transform="translate(70,107)"></path>
  <path d="M0 0 C1.64634286 2.96341714 2.55681086 5.63176256 3 9 C2.67 9.66 2.34 10.32 2 11 C0.07421875 11.484375 0.07421875 11.484375 -2.3125 11.75 C-3.48232422 11.89695313 -3.48232422 11.89695313 -4.67578125 12.046875 C-7.30133568 11.99392264 -8.76473757 11.32990442 -11 10 C-7.535 9.505 -7.535 9.505 -4 9 C-5.32 8.01 -6.64 7.02 -8 6 C-8 6.66 -8 7.32 -8 8 C-9.32 7.34 -10.64 6.68 -12 6 C-11 4 -11 4 -9 2 C-8.01 2.66 -7.02 3.32 -6 4 C-3.35367713 3.6878236 -3.35367713 3.6878236 -1 3 C-0.67 2.01 -0.34 1.02 0 0 Z " fill="#5BB3DD" transform="translate(105,143)"></path>
  <path d="M0 0 C0.495 1.485 0.495 1.485 1 3 C-3.95 3 -8.9 3 -14 3 C-14 2.34 -14 1.68 -14 1 C-14.74507812 1.16371094 -15.49015625 1.32742187 -16.2578125 1.49609375 C-21.47262574 2.1982972 -26.62020731 2.10456423 -31.875 2.0625 C-33.47988281 2.05573242 -33.47988281 2.05573242 -35.1171875 2.04882812 C-37.74484986 2.03709749 -40.37239538 2.02068228 -43 2 C-43 1.67 -43 1.34 -43 1 C-28.67494166 -0.22848892 -14.36710464 -0.10248703 0 0 Z " fill="#1693D1" transform="translate(102,38)"></path>
  <path d="M0 0 C6.6 0 13.2 0 20 0 C20 1.32 20 2.64 20 4 C17.2291017 4.02696009 14.4584655 4.04681952 11.6875 4.0625 C10.50897461 4.07506836 10.50897461 4.07506836 9.30664062 4.08789062 C8.54931641 4.09111328 7.79199219 4.09433594 7.01171875 4.09765625 C5.96697388 4.10551147 5.96697388 4.10551147 4.90112305 4.11352539 C3 4 3 4 0 3 C0 2.01 0 1.02 0 0 Z " fill="#F38425" transform="translate(137,91)"></path>
  <path d="M0 0 C0 0.33 0 0.66 0 1 C-3.3 1.33 -6.6 1.66 -10 2 C-5.71 2.33 -1.42 2.66 3 3 C3 3.33 3 3.66 3 4 C-8.05694276 4.1139891 -18.97636372 3.91050683 -30 3 C-29.67 2.34 -29.34 1.68 -29 1 C-19.62406615 -0.82692829 -9.52138951 -0.1015314 0 0 Z " fill="#A9D7E9" transform="translate(77,59)"></path>
  <path d="M0 0 C7.59 0 15.18 0 23 0 C23 0.99 23 1.98 23 3 C15.08 3 7.16 3 -1 3 C-0.67 2.01 -0.34 1.02 0 0 Z " fill="#F47D15" transform="translate(134,97)"></path>
  <path d="M0 0 C2.77109307 -0.05392397 5.54113818 -0.09363455 8.3125 -0.125 C9.09818359 -0.14175781 9.88386719 -0.15851563 10.69335938 -0.17578125 C11.45068359 -0.18222656 12.20800781 -0.18867187 12.98828125 -0.1953125 C13.68477783 -0.20578613 14.38127441 -0.21625977 15.09887695 -0.22705078 C17 0 17 0 20 2 C15.58970217 4.20949832 11.51059676 4.2370648 6.6875 4.125 C5.94693359 4.11597656 5.20636719 4.10695313 4.44335938 4.09765625 C2.62876533 4.07424213 0.81433929 4.03837615 -1 4 C-0.34 3.34 0.32 2.68 1 2 C0.67 1.34 0.34 0.68 0 0 Z " fill="#1894D1" transform="translate(87,107)"></path>
  <path d="M0 0 C1.24394531 0.00322266 2.48789063 0.00644531 3.76953125 0.00976562 C5.05472656 0.01814453 6.33992188 0.02652344 7.6640625 0.03515625 C8.97246094 0.03966797 10.28085938 0.04417969 11.62890625 0.04882812 C14.84900531 0.06058031 18.0690102 0.07701082 21.2890625 0.09765625 C21.2890625 0.42765625 21.2890625 0.75765625 21.2890625 1.09765625 C14.0290625 1.42765625 6.7690625 1.75765625 -0.7109375 2.09765625 C3.5790625 2.42765625 7.8690625 2.75765625 12.2890625 3.09765625 C12.2890625 3.42765625 12.2890625 3.75765625 12.2890625 4.09765625 C9.62232508 4.1249297 6.95587381 4.14462573 4.2890625 4.16015625 C3.17337891 4.17272461 3.17337891 4.17272461 2.03515625 4.18554688 C-2.97242594 4.20731897 -7.75372782 3.81307174 -12.7109375 3.09765625 C-12.7109375 2.43765625 -12.7109375 1.77765625 -12.7109375 1.09765625 C-8.41488018 0.27543071 -4.37127147 -0.0200517 0 0 Z " fill="#9ED2E7" transform="translate(66.7109375,90.90234375)"></path>
  <path d="M0 0 C9.9 0 19.8 0 30 0 C30 0.66 30 1.32 30 2 C32.475 2.495 32.475 2.495 35 3 C35 3.33 35 3.66 35 4 C33.083412 4.02712153 31.1667127 4.04645097 29.25 4.0625 C27.64898437 4.07990234 27.64898437 4.07990234 26.015625 4.09765625 C23 4 23 4 21.09570312 3.51367188 C18.8442959 2.96183581 16.76726227 2.79304619 14.453125 2.68359375 C13.60878906 2.64169922 12.76445313 2.59980469 11.89453125 2.55664062 C11.02183594 2.51732422 10.14914063 2.47800781 9.25 2.4375 C8.36183594 2.39431641 7.47367187 2.35113281 6.55859375 2.30664062 C4.37254037 2.20086385 2.18637911 2.09877454 0 2 C0 1.34 0 0.68 0 0 Z " fill="#93CDE7" transform="translate(58,39)"></path>
  <path d="M0 0 C3.96 0 7.92 0 12 0 C12 0.33 12 0.66 12 1 C8.37 1 4.74 1 1 1 C1 2.65 1 4.3 1 6 C4.63 6 8.26 6 12 6 C12.33 7.65 12.66 9.3 13 11 C12 12 12 12 9.49609375 12.09765625 C7.98208984 12.08025391 7.98208984 12.08025391 6.4375 12.0625 C5.42558594 12.05347656 4.41367187 12.04445312 3.37109375 12.03515625 C2.58863281 12.02355469 1.80617187 12.01195312 1 12 C1 15.3 1 18.6 1 22 C0.67 22 0.34 22 0 22 C0 18.37 0 14.74 0 11 C4.455 10.505 4.455 10.505 9 10 C9 9.34 9 8.68 9 8 C6.03 7.67 3.06 7.34 0 7 C0 4.69 0 2.38 0 0 Z " fill="#A9D7E9" transform="translate(45,129)"></path>
  <path d="M0 0 C0.33 0.99 0.66 1.98 1 3 C-7.58 3 -16.16 3 -25 3 C-25 2.34 -25 1.68 -25 1 C-16.64380043 0.24524649 -8.39004715 -0.13605482 0 0 Z " fill="#8DC9E4" transform="translate(72,75)"></path>
  <path d="M0 0 C6.93 0 13.86 0 21 0 C21.33 0.99 21.66 1.98 22 3 C18.70835171 3.02895225 15.41673601 3.0467823 12.125 3.0625 C11.18785156 3.07087891 10.25070313 3.07925781 9.28515625 3.08789062 C7.94130859 3.09272461 7.94130859 3.09272461 6.5703125 3.09765625 C5.32918701 3.10551147 5.32918701 3.10551147 4.06298828 3.11352539 C2 3 2 3 0 2 C0 1.34 0 0.68 0 0 Z " fill="#F38220" transform="translate(132,38)"></path>
  <path d="M0 0 C1.125 3.75 1.125 3.75 0 6 C0.99 5.67 1.98 5.34 3 5 C3.66 5.66 4.32 6.32 5 7 C4.69347955 9.9425963 4.32728846 12.34542308 3 15 C4.65 15 6.3 15 8 15 C7.67 13.02 7.34 11.04 7 9 C7.99 9.66 8.98 10.32 10 11 C10.1875 13.625 10.1875 13.625 10 16 C7.36 16 4.72 16 2 16 C2 14.02 2 12.04 2 10 C1.01 9.67 0.02 9.34 -1 9 C-1.99 9.99 -2.98 10.98 -4 12 C-2.66666667 8 -1.33333333 4 0 0 Z " fill="#78C0E1" transform="translate(66,126)"></path>
  <path d="M0 0 C0.75410156 0.00451172 1.50820312 0.00902344 2.28515625 0.01367188 C4.14847127 0.02546501 6.01174555 0.04340058 7.875 0.0625 C6.885 0.7225 5.895 1.3825 4.875 2.0625 C9.825 2.3925 14.775 2.7225 19.875 3.0625 C19.875 3.3925 19.875 3.7225 19.875 4.0625 C9.80895765 4.17099626 -0.09612823 4.0392249 -10.125 3.0625 C-10.125 2.4025 -10.125 1.7425 -10.125 1.0625 C-6.93675432 -0.53162284 -3.49603338 -0.03924735 0 0 Z " fill="#AED9EA" transform="translate(64.125,42.9375)"></path>
  <path d="M0 0 C5.45769811 -0.11138159 10.61509359 0.08342019 16 1 C16.33 1.99 16.66 2.98 17 4 C14.72923158 4.02699725 12.45837179 4.04639453 10.1875 4.0625 C8.29064453 4.07990234 8.29064453 4.07990234 6.35546875 4.09765625 C3 4 3 4 0 3 C0 2.01 0 1.02 0 0 Z " fill="#F38121" transform="translate(140,26)"></path>
  <path d="M0 0 C6.258654 -0.5326514 10.45108785 1.18150494 16 4 C14.02 4.99 14.02 4.99 12 6 C11.01 5.34 10.02 4.68 9 4 C9 3.34 9 2.68 9 2 C8.34 2 7.68 2 7 2 C7 2.99 7 3.98 7 5 C5.37419034 4.88601335 3.74932843 4.75844341 2.125 4.625 C1.22007813 4.55539063 0.31515625 4.48578125 -0.6171875 4.4140625 C-3 4 -3 4 -5 2 C-3.35 2 -1.7 2 0 2 C0 1.34 0 0.68 0 0 Z " fill="#49ABD9" transform="translate(98,27)"></path>
  <path d="M0 0 C7.92 0 15.84 0 24 0 C23.67 0.99 23.34 1.98 23 3 C15.24506486 3.09928082 7.68931285 3.06059488 0 2 C0 1.34 0 0.68 0 0 Z " fill="#AAD8EA" transform="translate(47,70)"></path>
  <path d="M0 0 C2 1 2 1 3 2 C4.34445602 2.38940904 5.70084879 2.73829733 7.0625 3.0625 C7.79597656 3.23910156 8.52945313 3.41570312 9.28515625 3.59765625 C9.85105469 3.73042969 10.41695312 3.86320312 11 4 C11 4.33 11 4.66 11 5 C10.030625 5.12375 9.06125 5.2475 8.0625 5.375 C6.5465625 5.684375 6.5465625 5.684375 5 6 C4.67 6.66 4.34 7.32 4 8 C1.53199953 6.84826645 -0.04783565 5.95216435 -2 4 C-2 6.31 -2 8.62 -2 11 C-1.34 11.33 -0.68 11.66 0 12 C-0.99 12 -1.98 12 -3 12 C-4.42041821 9.15916359 -4.31452272 7.14522722 -4 4 C-2 1.625 -2 1.625 0 0 Z " fill="#71BDE1" transform="translate(92,124)"></path>
  <path d="M0 0 C0.74958984 0.00451172 1.49917969 0.00902344 2.27148438 0.01367188 C4.11852383 0.02543646 5.96552213 0.04337135 7.8125 0.0625 C7.8125 0.3925 7.8125 0.7225 7.8125 1.0625 C10.7825 1.3925 13.7525 1.7225 16.8125 2.0625 C16.8125 2.3925 16.8125 2.7225 16.8125 3.0625 C7.5725 3.0625 -1.6675 3.0625 -11.1875 3.0625 C-11.1875 2.4025 -11.1875 1.7425 -11.1875 1.0625 C-7.42449626 -0.19183458 -3.91539091 -0.04445422 0 0 Z " fill="#A1D2E7" transform="translate(62.1875,48.9375)"></path>
  <path d="M0 0 C5.94 0 11.88 0 18 0 C17.67 0.99 17.34 1.98 17 3 C11.72 3 6.44 3 1 3 C0.67 2.01 0.34 1.02 0 0 Z " fill="#F3801D" transform="translate(136,43)"></path>
  <path d="M0 0 C2.62527189 -0.05382106 5.24944713 -0.09358313 7.875 -0.125 C8.62136719 -0.14175781 9.36773437 -0.15851563 10.13671875 -0.17578125 C12.09194461 -0.1933959 14.04742021 -0.10320189 16 0 C16.66 0.66 17.32 1.32 18 2 C14.23699626 3.25433458 10.72789091 3.10695422 6.8125 3.0625 C6.06291016 3.05798828 5.31332031 3.05347656 4.54101562 3.04882812 C2.69397617 3.03706354 0.84697787 3.01912865 -1 3 C-0.67 2.01 -0.34 1.02 0 0 Z " fill="#F47F1B" transform="translate(140,86)"></path>
  <path d="M0 0 C4.29 0 8.58 0 13 0 C12.01 0.495 12.01 0.495 11 1 C11 1.66 11 2.32 11 3 C11.99 3.33 12.98 3.66 14 4 C9.38 4 4.76 4 0 4 C0 2.68 0 1.36 0 0 Z " fill="#F38121" transform="translate(141,80)"></path>
  <path d="M0 0 C0.79921875 0.03609375 1.5984375 0.0721875 2.421875 0.109375 C3.02515625 0.15578125 3.6284375 0.2021875 4.25 0.25 C4.25 0.91 4.25 1.57 4.25 2.25 C5.57 2.58 6.89 2.91 8.25 3.25 C7.25 4.25 7.25 4.25 3.65234375 4.34765625 C2.16403133 4.3409822 0.67573568 4.32902183 -0.8125 4.3125 C-1.57111328 4.30798828 -2.32972656 4.30347656 -3.11132812 4.29882812 C-4.99091871 4.2870068 -6.87046899 4.26907078 -8.75 4.25 C-5.89835661 0.92744302 -4.41422083 -0.25966005 0 0 Z " fill="#F3801D" transform="translate(149.75,106.75)"></path>
  <path d="M0 0 C0.80566406 0.00322266 1.61132812 0.00644531 2.44140625 0.00976562 C3.70404297 0.02233398 3.70404297 0.02233398 4.9921875 0.03515625 C5.84167969 0.03966797 6.69117188 0.04417969 7.56640625 0.04882812 C9.66669659 0.06062751 11.7669508 0.07856319 13.8671875 0.09765625 C13.8671875 1.08765625 13.8671875 2.07765625 13.8671875 3.09765625 C7.2671875 3.09765625 0.6671875 3.09765625 -6.1328125 3.09765625 C-6.1328125 2.43765625 -6.1328125 1.77765625 -6.1328125 1.09765625 C-3.8362755 -0.05061225 -2.54968083 -0.0179555 0 0 Z " fill="#ACD8E8" transform="translate(57.1328125,85.90234375)"></path>
  <path d="M0 0 C2.7885289 -0.22107787 5.34653181 -0.28107535 8.125 -0.1875 C8.87910156 -0.17396484 9.63320312 -0.16042969 10.41015625 -0.14648438 C12.27374127 -0.11109985 14.13695978 -0.05729167 16 0 C15.01 1.485 15.01 1.485 14 3 C11.2114711 3.22107787 8.65346819 3.28107535 5.875 3.1875 C5.12089844 3.17396484 4.36679688 3.16042969 3.58984375 3.14648438 C1.72625873 3.11109985 -0.13695978 3.05729167 -2 3 C-1.34 2.01 -0.68 1.02 0 0 Z " fill="#1794D2" transform="translate(87,43)"></path>
  <path d="M0 0 C0.66 0.99 1.32 1.98 2 3 C4.58380177 3.25030977 4.58380177 3.25030977 7 3 C7.33 2.34 7.66 1.68 8 1 C7.45276317 4.37462715 6.9451 6.08235 5 9 C3.35 8.67 1.7 8.34 0 8 C-0.79953138 4.71303767 -1.09658936 3.28976808 0 0 Z " fill="#6ABAE0" transform="translate(58,146)"></path>
  <path d="M0 0 C1.23556641 0.01740234 1.23556641 0.01740234 2.49609375 0.03515625 C3.32238281 0.04417969 4.14867188 0.05320312 5 0.0625 C5.63808594 0.07410156 6.27617188 0.08570312 6.93359375 0.09765625 C6.93359375 1.41765625 6.93359375 2.73765625 6.93359375 4.09765625 C1.32359375 4.09765625 -4.28640625 4.09765625 -10.06640625 4.09765625 C-10.06640625 3.76765625 -10.06640625 3.43765625 -10.06640625 3.09765625 C-8.93203125 2.78828125 -7.79765625 2.47890625 -6.62890625 2.16015625 C-3.9174895 1.3514881 -2.58036823 0.12194557 0 0 Z " fill="#1D96D2" transform="translate(94.06640625,79.90234375)"></path>
  <path d="M0 0 C3.42054006 1.14018002 4.2426201 1.92458518 6 5 C5.625 7.125 5.625 7.125 5 9 C5.33 9.66 5.66 10.32 6 11 C4.35 10.67 2.7 10.34 1 10 C-0.1577506 6.52674819 -0.06866652 3.63932552 0 0 Z " fill="#269AD3" transform="translate(90,128)"></path>
  <path d="M0 0 C1.51400391 0.01740234 1.51400391 0.01740234 3.05859375 0.03515625 C4.07050781 0.04417969 5.08242187 0.05320313 6.125 0.0625 C7.29869141 0.07990234 7.29869141 0.07990234 8.49609375 0.09765625 C8.49609375 0.42765625 8.49609375 0.75765625 8.49609375 1.09765625 C4.04109375 1.59265625 4.04109375 1.59265625 -0.50390625 2.09765625 C-0.83390625 3.08765625 -1.16390625 4.07765625 -1.50390625 5.09765625 C2.45609375 5.09765625 6.41609375 5.09765625 10.49609375 5.09765625 C6.75240633 6.96949996 5.65601465 7.33765392 1.74609375 7.22265625 C0.946875 7.20460938 0.14765625 7.1865625 -0.67578125 7.16796875 C-1.2790625 7.14476563 -1.88234375 7.1215625 -2.50390625 7.09765625 C-2.88523924 5.10625065 -3.21716207 3.10486548 -3.50390625 1.09765625 C-2.50390625 0.09765625 -2.50390625 0.09765625 0 0 Z " fill="#F4D0A9" transform="translate(144.50390625,62.90234375)"></path>
  <path d="M0 0 C1.45792884 -0.05399736 2.91642712 -0.09279177 4.375 -0.125 C5.18710938 -0.14820313 5.99921875 -0.17140625 6.8359375 -0.1953125 C9 0 9 0 11 2 C4.88371885 3.83768998 -0.16145766 4.14116794 -6.5 3.625 C-7.32242188 3.56828125 -8.14484375 3.5115625 -8.9921875 3.453125 C-10.99560966 3.31335136 -12.99795503 3.15828133 -15 3 C-15 2.67 -15 2.34 -15 2 C-10.05 1.67 -5.1 1.34 0 1 C0 0.67 0 0.34 0 0 Z " fill="#43A6D9" transform="translate(92,57)"></path>
  <path d="M0 0 C0.33 0 0.66 0 1 0 C1 1.65 1 3.3 1 5 C-2.63 5 -6.26 5 -10 5 C-10 6.65 -10 8.3 -10 10 C-11.32 9.67 -12.64 9.34 -14 9 C-13.67 7.02 -13.34 5.04 -13 3 C-8.71 3.33 -4.42 3.66 0 4 C0 2.68 0 1.36 0 0 Z " fill="#36A1D6" transform="translate(139,124)"></path>
  <path d="M0 0 C4.95 0 9.9 0 15 0 C14.67 0.99 14.34 1.98 14 3 C9.38 3 4.76 3 0 3 C0 2.01 0 1.02 0 0 Z " fill="#F47F1D" transform="translate(139,49)"></path>
  <path d="M0 0 C3.63 0 7.26 0 11 0 C11 0.66 11 1.32 11 2 C11.99 2.33 12.98 2.66 14 3 C9.05 3 4.1 3 -1 3 C-0.67 2.01 -0.34 1.02 0 0 Z " fill="#F2A965" transform="translate(129,27)"></path>
  <path d="M0 0 C4.62 0 9.24 0 14 0 C14 0.99 14 1.98 14 3 C9.38 3 4.76 3 0 3 C0 2.01 0 1.02 0 0 Z " fill="#1794D1" transform="translate(87,102)"></path>
  <path d="M0 0 C6.6 0.33 13.2 0.66 20 1 C20 1.33 20 1.66 20 2 C9.605 2.495 9.605 2.495 -1 3 C-0.67 2.01 -0.34 1.02 0 0 Z " fill="#F18324" transform="translate(134,97)"></path>
  <path d="M0 0 C2.53412471 1.26706235 2.97838008 2.40665712 4 5 C3.67 5.66 3.34 6.32 3 7 C-0.0625 7.625 -0.0625 7.625 -3 8 C-2.67 6.35 -2.34 4.7 -2 3 C-1.34 3 -0.68 3 0 3 C0 2.01 0 1.02 0 0 Z " fill="#1C96D2" transform="translate(62,142)"></path>
  <path d="M0 0 C3.63 0 7.26 0 11 0 C11 0.66 11 1.32 11 2 C8.59454362 3.20272819 7.05003047 3.10071472 4.375 3.0625 C3.14910156 3.04896484 3.14910156 3.04896484 1.8984375 3.03515625 C0.95871094 3.01775391 0.95871094 3.01775391 0 3 C0 2.01 0 1.02 0 0 Z " fill="#F37F1C" transform="translate(143,65)"></path>
  <path d="M0 0 C1.32 0 2.64 0 4 0 C4 0.66 4 1.32 4 2 C4.99 2.33 5.98 2.66 7 3 C-0.26 3 -7.52 3 -15 3 C-15 2.67 -15 2.34 -15 2 C-10.05 2 -5.1 2 0 2 C0 1.34 0 0.68 0 0 Z " fill="#339FD3" transform="translate(95,60)"></path>
  <path d="M0 0 C1.98 0 3.96 0 6 0 C5.34 0.66 4.68 1.32 4 2 C5.32 2.66 6.64 3.32 8 4 C6.20906809 4.08086147 4.41710372 4.13912702 2.625 4.1875 C1.12839844 4.23970703 1.12839844 4.23970703 -0.3984375 4.29296875 C-1.25695312 4.19628906 -2.11546875 4.09960938 -3 4 C-3.66 3.01 -4.32 2.02 -5 1 C-2.525 1.495 -2.525 1.495 0 2 C0 1.34 0 0.68 0 0 Z " fill="#1893D3" transform="translate(97,149)"></path>
  <path d="M0 0 C2.1519437 3.22791555 2.20086443 4.28400809 2 8 C1.01 7.67 0.02 7.34 -1 7 C-1 5.02 -1 3.04 -1 1 C-2.485 2.485 -2.485 2.485 -4 4 C-5.32 3.34 -6.64 2.68 -8 2 C-4.79191085 -0.1387261 -3.72301503 -0.47730962 0 0 Z " fill="#1696D3" transform="translate(110,138)"></path>
  <path d="M0 0 C4.95 0 9.9 0 15 0 C15 0.33 15 0.66 15 1 C13.35 1.33 11.7 1.66 10 2 C10 2.33 10 2.66 10 3 C6.7 3 3.4 3 0 3 C0 2.01 0 1.02 0 0 Z " fill="#F37C18" transform="translate(141,54)"></path>
  <path d="M0 0 C0.5625 1.9375 0.5625 1.9375 1 4 C0 5 0 5 -3.16015625 5.09765625 C-5.09181641 5.08025391 -5.09181641 5.08025391 -7.0625 5.0625 C-8.35285156 5.05347656 -9.64320312 5.04445312 -10.97265625 5.03515625 C-11.97167969 5.02355469 -12.97070312 5.01195312 -14 5 C-14 4.67 -14 4.34 -14 4 C-7.565 3.505 -7.565 3.505 -1 3 C-0.67 2.01 -0.34 1.02 0 0 Z " fill="#55AEDB" transform="translate(59,124)"></path>
  <path d="M0 0 C2.64 0 5.28 0 8 0 C8 1.32 8 2.64 8 4 C4.7 4 1.4 4 -2 4 C-2 3.67 -2 3.34 -2 3 C-0.68 2.67 0.64 2.34 2 2 C1.34 2 0.68 2 0 2 C0 1.34 0 0.68 0 0 Z " fill="#1593D2" transform="translate(68,142)"></path>
  <path d="M0 0 C3.96 0 7.92 0 12 0 C7.09396701 3.67952474 5.82490317 3.29124516 0 3 C0 2.01 0 1.02 0 0 Z " fill="#F3801E" transform="translate(142,59)"></path>
  <path d="M0 0 C3.3 0 6.6 0 10 0 C9.01 0.495 9.01 0.495 8 1 C8 1.66 8 2.32 8 3 C5.36 3 2.72 3 0 3 C0 2.01 0 1.02 0 0 Z " fill="#F37F1C" transform="translate(142,75)"></path>
  <path d="M0 0 C-0.99 0.495 -0.99 0.495 -2 1 C-1.01 2.485 -1.01 2.485 0 4 C-3.63 3.01 -7.26 2.02 -11 1 C-11 0.67 -11 0.34 -11 0 C-3.57142857 -1.28571429 -3.57142857 -1.28571429 0 0 Z " fill="#6CBAE0" transform="translate(105,139)"></path>
  <path d="M0 0 C3.3 0 6.6 0 10 0 C9.01 0.495 9.01 0.495 8 1 C8 1.66 8 2.32 8 3 C5.36 3 2.72 3 0 3 C0 2.01 0 1.02 0 0 Z " fill="#1794D4" transform="translate(46,136)"></path>
  <path d="M0 0 C2.64 0.99 5.28 1.98 8 3 C8 3.33 8 3.66 8 4 C6.02 4 4.04 4 2 4 C2 4.66 2 5.32 2 6 C0.68 5.34 -0.64 4.68 -2 4 C-1.33333333 2.66666667 -0.66666667 1.33333333 0 0 Z " fill="#74BDE1" transform="translate(95,145)"></path>
  <path d="M0 0 C0.99 0 1.98 0 3 0 C3.33 1.32 3.66 2.64 4 4 C2.68 4.99 1.36 5.98 0 7 C-1.125 2.25 -1.125 2.25 0 0 Z " fill="#1A96D3" transform="translate(74,129)"></path>
  <path d="M0 0 C3.125 -0.1875 3.125 -0.1875 6 0 C5.67 0.99 5.34 1.98 5 3 C5.66 3.33 6.32 3.66 7 4 C4.03 3.67 1.06 3.34 -2 3 C-1.34 2.01 -0.68 1.02 0 0 Z " fill="#1C95D4" transform="translate(94,124)"></path>
  <path d="M0 0 C4.29 0 8.58 0 13 0 C13.33 0.66 13.66 1.32 14 2 C13.0625 4.125 13.0625 4.125 12 6 C11.67 4.35 11.34 2.7 11 1 C7.37 1 3.74 1 0 1 C0 0.67 0 0.34 0 0 Z " fill="#8FCBE7" transform="translate(66,146)"></path>
  <path d="M0 0 C1.9375 0.5625 1.9375 0.5625 4 2 C4.75 5.625 4.75 5.625 5 9 C3.68 8.67 2.36 8.34 1 8 C1.20625 7.236875 1.4125 6.47375 1.625 5.6875 C2.33391203 2.78114056 2.33391203 2.78114056 0 0 Z " fill="#8CCAE7" transform="translate(107,124)"></path>
  <path d="M0 0 C1.485 0.99 1.485 0.99 3 2 C2.814375 2.61875 2.62875 3.2375 2.4375 3.875 C1.76313824 6.04160178 1.76313824 6.04160178 3 8 C1.68 7.67 0.36 7.34 -1 7 C-0.67 4.69 -0.34 2.38 0 0 Z " fill="#1794D3" transform="translate(107,125)"></path>
  <path d="M0 0 C1.84765625 0.33984375 1.84765625 0.33984375 4.0625 0.9375 C5.16271484 1.22947266 5.16271484 1.22947266 6.28515625 1.52734375 C7.13400391 1.76130859 7.13400391 1.76130859 8 2 C8 2.33 8 2.66 8 3 C6.8553125 3.2165625 6.8553125 3.2165625 5.6875 3.4375 C2.91827092 3.9632594 2.91827092 3.9632594 0 5 C-0.5625 3.0625 -0.5625 3.0625 -1 1 C-0.67 0.67 -0.34 0.34 0 0 Z " fill="#63B6DD" transform="translate(96,132)"></path>
  <path d="M0 0 C2.97 0 5.94 0 9 0 C9 0.99 9 1.98 9 3 C6.36 3 3.72 3 1 3 C0.67 2.01 0.34 1.02 0 0 Z " fill="#1693D2" transform="translate(92,65)"></path>
  <path d="M0 0 C2.64 0 5.28 0 8 0 C8.33 0.66 8.66 1.32 9 2 C8.67 2.66 8.34 3.32 8 4 C6.68 3.67 5.36 3.34 4 3 C4.33 2.34 4.66 1.68 5 1 C3.35 1 1.7 1 0 1 C0 0.67 0 0.34 0 0 Z " fill="#1894D2" transform="translate(95,91)"></path>
  <path d="M0 0 C0.99 0 1.98 0 3 0 C2.25 5.75 2.25 5.75 0 8 C-1.125 2.25 -1.125 2.25 0 0 Z " fill="#6BBBE1" transform="translate(130,80)"></path>
  <path d="M0 0 C2.4375 0.375 2.4375 0.375 5 1 C5.33 1.66 5.66 2.32 6 3 C4.02 3.33 2.04 3.66 0 4 C0 2.68 0 1.36 0 0 Z " fill="#1894D3" transform="translate(89,143)"></path>
  <path d="M0 0 C0.66 0 1.32 0 2 0 C2 0.66 2 1.32 2 2 C1.34 2 0.68 2 0 2 C0 1.34 0 0.68 0 0 Z " fill="#F6DDC0" transform="translate(167,122)"></path>
  <path d="" fill="#FFFAFE" transform="translate(0,0)"></path>
</svg>