<?xml version="1.0" encoding="UTF-8"?>
<!DOCTYPE svg PUBLIC "-//W3C//DTD SVG 1.1//EN" "http://www.w3.org/Graphics/SVG/1.1/DTD/svg11.dtd">
<!-- Creator: CorelDRAW X8 -->
<svg xmlns="http://www.w3.org/2000/svg" xml:space="preserve" width="127.353mm" height="113.242mm" version="1.1" style="shape-rendering:geometricPrecision; text-rendering:geometricPrecision; image-rendering:optimizeQuality; fill-rule:evenodd; clip-rule:evenodd"
viewBox="0 0 3561 3166"
 xmlns:xlink="http://www.w3.org/1999/xlink">
 <defs>
  <style type="text/css">
   <![CDATA[
    .fil3 {fill:#1E326E}
    .fil4 {fill:#223570}
    .fil1 {fill:#333333}
    .fil2 {fill:#343434}
    .fil0 {fill:#367BB8}
   ]]>
  </style>
 </defs>
 <g id="图层_x0020_1">
  <metadata id="CorelCorpID_0Corel-Layer"/>
  <g id="_1584470976208">
   <path class="fil0" d="M1440 907c203,303 728,573 1085,573l0 -1460c-138,11 -507,276 -621,365 -26,19 -37,34 -64,55l-190 184c-40,48 -73,88 -110,137 -36,49 -71,92 -100,146z"/>
   <path class="fil1" d="M1154 2436c0,-250 306,-210 306,-29 0,237 -306,192 -306,29zm-276 365l266 0 0 -29c66,5 63,29 168,29 209,0 385,-178 385,-384 0,-211 -171,-385 -405,-385 -69,0 -92,25 -148,30l0 -405 -266 0 0 1144z"/>
   <path class="fil1" d="M2722 3166l316 0c100,-188 283,-625 391,-851 47,-97 84,-193 132,-283l-326 0c-16,70 -91,184 -108,256l-20 0c-14,-59 -112,-188 -128,-256l-345 0c97,183 184,371 279,559 41,81 47,61 7,141l-165 358c-14,32 -25,43 -33,76z"/>
   <path class="fil2" d="M2140 2259c151,0 203,179 117,264 -108,107 -264,23 -272,-98 -6,-86 70,-166 155,-166zm178 -188c-73,-17 -67,-39 -178,-39 -209,0 -384,177 -384,385 0,209 170,384 404,384 76,0 103,-26 158,-39l0 39 256 0 0 -759c0,-50 -90,-30 -226,-30 -36,0 -30,25 -30,59z"/>
   <path class="fil2" d="M227 2417c0,-201 316,-215 316,0 0,216 -316,194 -316,0zm335 -346c-88,-20 -54,-39 -197,-39 -190,0 -365,175 -365,395 0,192 164,374 404,374 77,0 103,-26 158,-39l0 39 257 0 0 -759c0,-50 -91,-30 -227,-30 -36,0 -30,25 -30,59z"/>
   <path class="fil3" d="M1172 138c-3,49 9,135 16,184 23,163 91,320 163,457 33,-22 32,-32 57,-61 19,-22 38,-39 59,-60 13,-12 17,-17 29,-30 71,-78 205,-194 288,-255 116,-85 248,-166 379,-232 181,-90 199,-78 316,-127l-1295 -14 -12 138z"/>
   <path class="fil0" d="M1253 1480l1104 -10c-242,0 -585,-146 -779,-286 -33,-24 -66,-54 -99,-79 -36,-29 -62,-65 -98,-89 -65,123 -128,276 -128,464z"/>
   <path class="fil4" d="M1036 1420c1,-2 3,-8 3,-6 0,1 2,-5 3,-7l37 -131c68,-210 113,-236 193,-388 -76,-145 -158,-220 -211,-440l-25 -73 0 1045z"/>
  </g>
 </g>
</svg>
