<?xml version="1.0" encoding="UTF-8"?>
<!DOCTYPE svg PUBLIC "-//W3C//DTD SVG 1.1//EN" "http://www.w3.org/Graphics/SVG/1.1/DTD/svg11.dtd">
<!-- Creator: CorelDRAW X8 -->
<svg xmlns="http://www.w3.org/2000/svg" xml:space="preserve" width="338.36mm" height="110.58mm" version="1.1" style="shape-rendering:geometricPrecision; text-rendering:geometricPrecision; image-rendering:optimizeQuality; fill-rule:evenodd; clip-rule:evenodd"
viewBox="0 0 9586 3133"
 xmlns:xlink="http://www.w3.org/1999/xlink">
 <defs>
  <style type="text/css">
   <![CDATA[
    .fil1 {fill:#231F20}
    .fil0 {fill:#BFD630}
   ]]>
  </style>
 </defs>
 <g id="图层_x0020_1">
  <metadata id="CorelCorpID_0Corel-Layer"/>
  <g id="_1792097512144">
   <polygon class="fil0" points="0,3133 9586,3133 9586,0 0,0 "/>
   <path class="fil1" d="M8248 823c-360,38 -661,364 -608,780 43,345 372,656 780,596 350,-52 648,-358 596,-774 -44,-356 -357,-646 -768,-602z"/>
   <path class="fil1" d="M1646 899l0 1222c0,44 2,55 48,55 103,0 250,7 347,-6 18,-90 -7,-413 13,-445 27,8 47,64 68,110l118 250c27,56 26,91 99,91l367 0c76,0 43,-31 -12,-118 -45,-73 -240,-377 -250,-410 395,-213 288,-803 -270,-803l-480 0c-43,0 -48,12 -48,54z"/>
   <path class="fil1" d="M5060 907l0 1214c0,48 2,55 52,55 105,0 264,6 362,-5 12,-105 1,-324 6,-453l266 1c8,45 4,303 3,380 -1,53 -8,77 52,77l315 0c50,0 49,-9 49,-55l0 -1222c0,-31 -1,-30 -12,-50 -54,-9 -361,-9 -400,2l-4 525 -268 1c-9,-82 -3,-383 -3,-478 0,-48 -1,-54 -51,-54l-315 0c-53,0 -52,11 -52,62z"/>
   <path class="fil1" d="M2869 899c0,201 -9,1150 6,1271 115,20 737,7 903,6 40,0 48,-7 48,-47 0,-57 8,-255 -7,-296 -162,-12 -417,8 -547,-6l0 -159c83,-13 343,15 393,-11 24,-20 41,-278 34,-304 -63,-28 -346,12 -427,-14l0 -143c41,-10 362,-5 446,-5 109,1 88,27 88,-292 0,-49 -9,-54 -58,-54l-825 0c-53,0 -54,2 -54,54z"/>
   <path class="fil1" d="M4761 1281c16,-20 56,-115 71,-151 18,-43 63,-116 61,-163 -256,-187 -716,-235 -885,73 -110,200 -51,437 175,564 78,44 230,87 288,131 58,45 37,172 -224,75 -165,-62 -122,-112 -213,95 -64,149 -105,162 61,236 300,135 784,72 816,-320 23,-279 -170,-388 -373,-468 -39,-15 -118,-44 -145,-64 -57,-41 -16,-104 53,-111 119,-12 237,92 315,103z"/>
   <path class="fil1" d="M7482 1776c-36,-2 -117,41 -179,49 -72,9 -143,5 -201,-23 -259,-120 -225,-670 202,-606 31,4 62,11 90,21 116,44 60,73 180,-164 60,-117 70,-106 -47,-163 -142,-69 -330,-92 -501,-55 -667,146 -662,1213 5,1354 172,36 354,10 499,-56 110,-51 102,-49 49,-155 -34,-66 -64,-143 -97,-202z"/>
   <path class="fil1" d="M574 850c-15,122 -5,1056 -5,1256 0,51 -6,70 53,70 361,0 348,27 347,-85 -1,-77 -5,-359 3,-400 469,-13 364,66 405,-253 8,-61 13,-68 -50,-69l-356 -1 -1 -173c47,-9 354,-5 439,-4 103,1 79,3 79,-292 0,-48 -6,-54 -56,-54 -168,0 -733,-8 -858,5z"/>
   <path class="fil0" d="M8154 1177l0 215 -239 5c-11,52 28,81 82,147 28,33 307,395 330,396 23,0 98,-104 115,-124l268 -332c109,-129 -24,-80 -204,-89 -6,-82 11,-217 -11,-280 -95,-17 -177,-9 -280,-8 -57,0 -61,16 -61,70z"/>
   <path class="fil0" d="M2046 1396c99,4 223,12 223,-100 1,-108 -117,-116 -221,-102l-2 202z"/>
  </g>
 </g>
</svg>
